<?xml version="1.0" encoding="iso-8859-1"?>
<!-- Generator: Adobe Illustrator 19.0.0, SVG Export Plug-In . SVG Version: 6.00 Build 0)  -->
<svg version="1.1" id="Layer_1" xmlns="http://www.w3.org/2000/svg" xmlns:xlink="http://www.w3.org/1999/xlink" x="0px" y="0px"
	 viewBox="0 0 512 512" style="enable-background:new 0 0 512 512;" xml:space="preserve">
<g>
	<g>
		<path d="M0,76.043v359.914h512V76.043H0z M496.283,420.24H15.717V91.76h480.567V420.24z"/>
	</g>
</g>
<g>
	<g>
		<path d="M32.019,108.062v111.771h447.963V108.062H32.019z M464.266,204.116H47.735v-80.339h416.53V204.116z"/>
	</g>
</g>
<g>
	<g>
		<path d="M55.886,236.135c-13.16,0-23.867,10.707-23.867,23.867c0,13.16,10.706,23.867,23.867,23.867s23.867-10.707,23.867-23.867
			C79.753,246.842,69.046,236.135,55.886,236.135z M55.886,268.152c-4.494,0-8.151-3.657-8.151-8.151
			c0-4.494,3.657-8.151,8.151-8.151s8.151,3.657,8.151,8.151C64.037,264.495,60.38,268.152,55.886,268.152z"/>
	</g>
</g>
<g>
	<g>
		<path d="M111.918,236.134c-13.161,0-23.867,10.707-23.867,23.867s10.707,23.867,23.867,23.867
			c13.16,0,23.867-10.707,23.867-23.867C135.785,246.841,125.079,236.134,111.918,236.134z M111.918,268.153
			c-4.494,0-8.151-3.657-8.151-8.151s3.657-8.151,8.151-8.151s8.151,3.657,8.151,8.151S116.412,268.153,111.918,268.153z"/>
	</g>
</g>
<g>
	<g>
		<path d="M167.949,236.134c-13.16,0-23.866,10.707-23.866,23.867s10.707,23.867,23.866,23.867
			c13.161,0,23.867-10.707,23.867-23.867C191.817,246.841,181.11,236.134,167.949,236.134z M167.949,268.153
			c-4.494,0-8.15-3.657-8.15-8.151s3.656-8.151,8.15-8.151s8.151,3.657,8.151,8.151S172.443,268.153,167.949,268.153z"/>
	</g>
</g>
<g>
	<g>
		<path d="M55.886,292.168c-13.16,0-23.867,10.707-23.867,23.867c0,13.16,10.706,23.867,23.867,23.867s23.867-10.707,23.867-23.867
			C79.753,302.875,69.046,292.168,55.886,292.168z M55.886,324.185c-4.494,0-8.151-3.657-8.151-8.151s3.657-8.151,8.151-8.151
			s8.151,3.657,8.151,8.151S60.38,324.185,55.886,324.185z"/>
	</g>
</g>
<g>
	<g>
		<path d="M111.918,292.167c-13.161,0-23.867,10.707-23.867,23.867s10.707,23.867,23.867,23.867
			c13.16,0,23.867-10.707,23.867-23.867S125.079,292.167,111.918,292.167z M111.918,324.186c-4.494,0-8.151-3.657-8.151-8.151
			s3.657-8.151,8.151-8.151s8.151,3.657,8.151,8.151S116.412,324.186,111.918,324.186z"/>
	</g>
</g>
<g>
	<g>
		<path d="M167.949,292.167c-13.16,0-23.866,10.707-23.866,23.867s10.707,23.867,23.866,23.867
			c13.161,0,23.867-10.707,23.867-23.867S181.11,292.167,167.949,292.167z M167.949,324.186c-4.494,0-8.15-3.657-8.15-8.151
			s3.656-8.151,8.15-8.151s8.151,3.657,8.151,8.151S172.443,324.186,167.949,324.186z"/>
	</g>
</g>
<g>
	<g>
		<path d="M55.886,348.2c-13.16,0-23.867,10.707-23.867,23.867c0,13.16,10.706,23.867,23.867,23.867s23.867-10.707,23.867-23.867
			C79.753,358.907,69.046,348.2,55.886,348.2z M55.886,380.216c-4.494,0-8.151-3.657-8.151-8.151s3.657-8.151,8.151-8.151
			s8.151,3.657,8.151,8.151S60.38,380.216,55.886,380.216z"/>
	</g>
</g>
<g>
	<g>
		<path d="M111.918,348.199c-13.161,0-23.867,10.707-23.867,23.867s10.707,23.867,23.867,23.867
			c13.16,0,23.867-10.707,23.867-23.867S125.079,348.199,111.918,348.199z M111.918,380.218c-4.494,0-8.151-3.657-8.151-8.151
			s3.657-8.151,8.151-8.151s8.151,3.657,8.151,8.151S116.412,380.218,111.918,380.218z"/>
	</g>
</g>
<g>
	<g>
		<path d="M167.949,348.199c-13.16,0-23.866,10.707-23.866,23.867s10.707,23.867,23.866,23.867
			c13.161,0,23.867-10.707,23.867-23.867S181.11,348.199,167.949,348.199z M167.949,380.218c-4.494,0-8.15-3.657-8.15-8.151
			s3.656-8.151,8.15-8.151s8.151,3.657,8.151,8.151S172.443,380.218,167.949,380.218z"/>
	</g>
</g>
<g>
	<g>
		<path d="M223.982,236.134c-13.161,0-23.867,10.707-23.867,23.867s10.707,23.867,23.867,23.867
			c13.16,0,23.867-10.707,23.867-23.867C247.849,246.841,237.142,236.134,223.982,236.134z M223.982,268.153
			c-4.494,0-8.151-3.657-8.151-8.151s3.657-8.151,8.151-8.151s8.151,3.657,8.151,8.151S228.476,268.153,223.982,268.153z"/>
	</g>
</g>
<g>
	<g>
		<path d="M223.982,292.167c-13.161,0-23.867,10.707-23.867,23.867s10.707,23.867,23.867,23.867
			c13.16,0,23.867-10.707,23.867-23.867S237.142,292.167,223.982,292.167z M223.982,324.186c-4.494,0-8.151-3.657-8.151-8.151
			s3.657-8.151,8.151-8.151s8.151,3.657,8.151,8.151S228.476,324.186,223.982,324.186z"/>
	</g>
</g>
<g>
	<g>
		<path d="M223.982,348.199c-13.161,0-23.867,10.707-23.867,23.867s10.707,23.867,23.867,23.867
			c13.16,0,23.867-10.707,23.867-23.867S237.142,348.199,223.982,348.199z M223.982,380.218c-4.494,0-8.151-3.657-8.151-8.151
			s3.657-8.151,8.151-8.151s8.151,3.657,8.151,8.151S228.476,380.218,223.982,380.218z"/>
	</g>
</g>
<g>
	<g>
		<path d="M264.151,236.134v47.735h47.735v-47.735H264.151z M296.169,268.153h-16.302v-16.302h16.302V268.153z"/>
	</g>
</g>
<g>
	<g>
		<path d="M264.151,292.167v47.735h47.735v-47.735H264.151z M296.169,324.186h-16.302v-16.302h16.302V324.186z"/>
	</g>
</g>
<g>
	<g>
		<path d="M264.151,348.199v47.735h47.735v-47.735H264.151z M296.169,380.218h-16.302v-16.302h16.302V380.218z"/>
	</g>
</g>
<g>
	<g>
		<path d="M320.183,236.134v47.735h47.735v-47.735H320.183z M352.202,268.153H335.9v-16.302h16.302V268.153z"/>
	</g>
</g>
<g>
	<g>
		<path d="M320.183,292.167v47.735h47.735v-47.735H320.183z M352.202,324.186H335.9v-16.302h16.302V324.186z"/>
	</g>
</g>
<g>
	<g>
		<path d="M320.183,348.199v47.735h47.735v-47.735H320.183z M352.202,380.218H335.9v-16.302h16.302V380.218z"/>
	</g>
</g>
<g>
	<g>
		<path d="M376.216,292.167v47.735h47.735v-47.735H376.216z M408.235,324.186h-16.302v-16.302h16.302V324.186z"/>
	</g>
</g>
<g>
	<g>
		<path d="M376.216,348.199v47.735h47.735v-47.735H376.216z M408.235,380.218h-16.302v-16.302h16.302V380.218z"/>
	</g>
</g>
<g>
	<g>
		<path d="M432.248,292.167v103.767h47.734V292.167H432.248z M464.266,380.218h-16.301v-72.334h16.301V380.218z"/>
	</g>
</g>
<g>
	<g>
		<path d="M376.216,236.134v47.735h103.766v-47.735H376.216z M464.266,268.153h-72.333v-16.302h72.333V268.153z"/>
	</g>
</g>
<g>
	<g>
		<rect x="55.008" y="130.877" width="15.717" height="15.717"/>
	</g>
</g>
<g>
	<g>
		<rect x="80.155" y="130.877" width="16.764" height="15.717"/>
	</g>
</g>
<g>
	<g>
		<rect x="104.253" y="130.877" width="15.717" height="15.717"/>
	</g>
</g>
<g>
	<g>
		<rect x="128.352" y="130.877" width="15.717" height="15.717"/>
	</g>
</g>
<g>
	<g>
		<polygon points="295.996,130.88 295.996,146.597 303.33,146.597 303.33,195.842 319.047,195.842 319.047,130.88 		"/>
	</g>
</g>
<g>
	<g>
		<polygon points="399.725,130.88 399.725,146.597 408.107,146.597 408.107,195.842 423.824,195.842 423.824,130.88 		"/>
	</g>
</g>
<g>
	<g>
		<polygon points="368.292,157.075 368.292,139.263 352.575,139.263 352.575,157.075 336.859,157.075 336.859,172.791 
			352.575,172.791 352.575,188.508 368.292,188.508 368.292,172.791 384.008,172.791 384.008,157.075 		"/>
	</g>
</g>
<g>
</g>
<g>
</g>
<g>
</g>
<g>
</g>
<g>
</g>
<g>
</g>
<g>
</g>
<g>
</g>
<g>
</g>
<g>
</g>
<g>
</g>
<g>
</g>
<g>
</g>
<g>
</g>
<g>
</g>
</svg>
